<svg width="27" height="39" viewBox="0 0 27 39" fill="none" xmlns="http://www.w3.org/2000/svg">
<g id="Vector-lieu">
<path id="Vector" d="M7.44446 28.6735C8.56393 30.1001 9.5828 31.6029 10.4937 33.1709C11.2714 34.6456 11.5956 35.6455 12.164 37.4224C12.5126 38.4041 12.8276 38.6971 13.5049 38.6971C14.243 38.6971 14.5779 38.1986 14.8366 37.4278C15.3738 35.7497 15.7954 34.4691 16.4605 33.2591C17.7656 30.9229 19.3873 28.847 20.9807 26.8518C21.4121 26.2871 24.2011 22.9975 25.4567 20.4018C25.4567 20.4018 26.9999 17.5504 26.9999 13.5682C26.9999 9.84323 25.478 7.25977 25.478 7.25977L21.0963 8.43322L18.4353 15.4417L17.777 16.4082L17.6453 16.5832L17.4703 16.8024L17.1629 17.1525L16.7237 17.5915L14.3542 19.522L8.42996 22.9426L7.44446 28.6735Z" fill="#DBFF4C"/>
<path id="Vector_2" d="M1.3302 19.9229C2.77608 23.2254 5.56426 26.1286 7.45068 28.6763L17.4704 16.8074C17.4704 16.8074 16.0588 18.6536 13.4982 18.6536C10.646 18.6536 8.34179 16.376 8.34179 13.504C8.34179 11.5346 9.52663 10.1816 9.52663 10.1816L2.72503 12.0041L1.3302 19.9229Z" fill="#DBFF4C"/>
<path id="Vector_3" d="M17.5822 0.610457C20.91 1.6834 23.7583 3.9359 25.4811 7.25744L17.4734 16.8001C17.4734 16.8001 18.6582 15.4227 18.6582 13.4655C18.6582 10.5267 16.1836 8.33122 13.5103 8.33122C10.9823 8.33122 9.5304 10.1743 9.5304 10.1743V4.16255L17.5822 0.610352V0.610457Z" fill="#DBFF4C"/>
<path id="Vector_4" d="M3.16565 4.8268C5.15322 2.44878 8.65057 0 13.4722 0C15.8115 0 17.5739 0.614147 17.5739 0.614147L9.5228 10.1795H3.8185L3.16565 4.8268Z" fill="#DBFF4C"/>
<path id="Vector_5" d="M1.33018 19.9217C1.33018 19.9217 0 17.3168 0 13.5431C0 9.97644 1.3865 6.85877 3.16566 4.82617L9.52735 10.1797L1.33018 19.9217Z" fill="#DBFF4C"/>
</g>
</svg>
