<svg width="28" height="20" viewBox="0 0 28 20" fill="none" xmlns="http://www.w3.org/2000/svg">
<path id="Vector-mail" d="M2.8 20C2.03 20 1.3706 19.755 0.821802 19.265C0.273002 18.775 -0.000930956 18.1867 2.37691e-06 17.5V2.5C2.37691e-06 1.8125 0.274402 1.22375 0.823202 0.733752C1.372 0.243752 2.03094 -0.000831211 2.8 2.12224e-06H25.2C25.97 2.12224e-06 26.6294 0.245002 27.1782 0.735002C27.727 1.225 28.0009 1.81334 28 2.5V17.5C28 18.1875 27.7256 18.7762 27.1768 19.2662C26.628 19.7562 25.9691 20.0008 25.2 20H2.8ZM14 11.25L25.2 5V2.5L14 8.75L2.8 2.5V5L14 11.25Z" fill="#DBFF4C"/>
</svg>
