<svg width="22" height="31" viewBox="0 0 22 31" fill="none" xmlns="http://www.w3.org/2000/svg">
<path id="Vector-call" d="M3.71134 0.680163L5.40375 0.146957C6.98774 -0.352149 8.68172 0.45541 9.36057 2.03333L10.712 5.17677C11.3013 6.54543 10.9744 8.1559 9.90428 9.15721L6.92959 11.9441C7.11345 13.612 7.68073 15.2534 8.63301 16.8686C9.53787 18.4312 10.7514 19.799 12.2017 20.8909L15.7782 19.7128C17.1328 19.268 18.6083 19.781 19.4396 20.9854L21.3756 23.7909C22.3436 25.1922 22.1691 27.1235 20.9702 28.3108L19.6847 29.5834C18.4056 30.8497 16.5796 31.3101 14.8888 30.7893C10.899 29.5617 7.23131 25.9176 3.8842 19.857C0.532376 13.7871 -0.649325 8.63486 0.33595 4.40641C0.750803 2.62699 2.03622 1.20872 3.71449 0.680163H3.71134Z" fill="#DBFF4C"/>
</svg>
