<svg width="32" height="31" viewBox="0 0 32 31" fill="none" xmlns="http://www.w3.org/2000/svg">
<path id="Vector-insta" d="M16 2.79291C20.2721 2.79291 20.7781 2.80865 22.4653 2.88312C24.0252 2.95214 24.8725 3.20462 25.4364 3.4169C26.1831 3.69808 26.7161 4.034 27.276 4.57638C27.836 5.11875 28.1826 5.6351 28.4729 6.35851C28.692 6.90477 28.9526 7.72554 29.0239 9.23667C29.1007 10.8712 29.117 11.3614 29.117 15.5C29.117 19.6387 29.1007 20.1289 29.0239 21.7633C28.9526 23.2746 28.692 24.0952 28.4729 24.6415C28.1826 25.3649 27.8359 25.8814 27.276 26.4237C26.7161 26.9661 26.1831 27.302 25.4364 27.5831C24.8725 27.7954 24.0252 28.048 22.4653 28.1169C20.7784 28.1915 20.2724 28.2072 16 28.2072C11.7275 28.2072 11.2215 28.1915 9.53463 28.1169C7.97463 28.0479 7.1275 27.7954 6.56362 27.5831C5.81687 27.302 5.28375 26.9661 4.72388 26.4237C4.164 25.8812 3.81725 25.3649 3.52712 24.6415C3.308 24.0954 3.04725 23.2746 2.97613 21.7633C2.89913 20.1289 2.88287 19.6387 2.88287 15.5C2.88287 11.3614 2.89913 10.8712 2.97613 9.23679C3.04737 7.72554 3.308 6.90477 3.52712 6.35851C3.81725 5.6351 4.164 5.11875 4.72388 4.57638C5.28387 4.03387 5.81687 3.69808 6.56362 3.4169C7.12737 3.20462 7.97463 2.95214 9.53463 2.88312C11.2218 2.80865 11.7277 2.79291 16 2.79291ZM16 0C11.6546 0 11.1097 0.0178008 9.40325 0.0932422C7.70012 0.168563 6.537 0.430609 5.51937 0.81375C4.46712 1.20985 3.57487 1.73987 2.68537 2.60158C1.79587 3.46328 1.24887 4.32765 0.84 5.34689C0.444375 6.33284 0.174 7.45962 0.09625 9.1094C0.018375 10.7626 0 11.2904 0 15.5C0 19.7096 0.018375 20.2374 0.09625 21.8906C0.174 23.5405 0.444375 24.6673 0.84 25.6531C1.24875 26.6724 1.79587 27.5368 2.68537 28.3985C3.57487 29.2602 4.46712 29.7902 5.51937 30.1863C6.53712 30.5695 7.70012 30.8314 9.40312 30.9068C11.1097 30.9822 11.6546 31 16 31C20.3454 31 20.8903 30.9822 22.5968 30.9068C24.2997 30.8314 25.4629 30.5695 26.4805 30.1863C27.5327 29.7903 28.425 29.2602 29.3145 28.3985C30.204 27.5368 30.7511 26.6725 31.16 25.6531C31.5555 24.6672 31.826 23.5405 31.9037 21.8907C31.9816 20.2374 32 19.7096 32 15.5C32 11.2904 31.9816 10.7626 31.9037 9.1094C31.826 7.45962 31.5555 6.33284 31.16 5.34702C30.7511 4.32765 30.204 3.46328 29.3145 2.60158C28.425 1.73987 27.5327 1.20973 26.4806 0.81375C25.4629 0.430609 24.2997 0.168563 22.5968 0.0932422C20.8903 0.0178008 20.3454 0 16 0ZM16 7.54051C11.4622 7.54051 7.78375 11.1043 7.78375 15.5C7.78375 19.8959 11.4622 23.4595 16 23.4595C20.5376 23.4595 24.2162 19.8959 24.2162 15.5C24.2162 11.1042 20.5376 7.54051 16 7.54051ZM16 20.6667C13.0545 20.6667 10.6666 18.3535 10.6666 15.5C10.6666 12.6465 13.0545 10.3333 16 10.3333C18.9455 10.3333 21.3334 12.6465 21.3334 15.5C21.3334 18.3535 18.9455 20.6667 16 20.6667ZM26.4608 7.22603C26.4608 8.25339 25.6012 9.08603 24.5408 9.08603C23.4804 9.08603 22.6208 8.25339 22.6208 7.22603C22.6208 6.19879 23.4804 5.36603 24.5408 5.36603C25.6012 5.36603 26.4608 6.19879 26.4608 7.22603Z" fill="#DBFF4C"/>
</svg>
